<?xml version="1.0" encoding="UTF-8" standalone="no"?>
<!-- Created with Inkscape (http://www.inkscape.org/) -->

<svg
   version="1.1"
   id="svg1"
   width="512"
   height="512"
   viewBox="0 0 512 512"
   sodipodi:docname="icon_tablet.svg"
   inkscape:version="1.3.2 (091e20ef0f, 2023-11-25, custom)"
   xmlns:inkscape="http://www.inkscape.org/namespaces/inkscape"
   xmlns:sodipodi="http://sodipodi.sourceforge.net/DTD/sodipodi-0.dtd"
   xmlns="http://www.w3.org/2000/svg"
   xmlns:svg="http://www.w3.org/2000/svg">
  <defs
     id="defs1" />
  <sodipodi:namedview
     id="namedview1"
     pagecolor="#505050"
     bordercolor="#ffffff"
     borderopacity="1"
     inkscape:showpageshadow="0"
     inkscape:pageopacity="0"
     inkscape:pagecheckerboard="1"
     inkscape:deskcolor="#d1d1d1"
     inkscape:zoom="0.4609375"
     inkscape:cx="254.91525"
     inkscape:cy="254.91525"
     inkscape:window-width="1804"
     inkscape:window-height="1173"
     inkscape:window-x="0"
     inkscape:window-y="0"
     inkscape:window-maximized="0"
     inkscape:current-layer="g1" />
  <g
     inkscape:groupmode="layer"
     inkscape:label="Image"
     id="g1">
    <path
       style="fill:#e1e1e1;fill-opacity:1"
       d="M 93.104631,510.42516 C 76.888167,506.04122 64.024477,492.29096 61.00528,476.11351 60.354432,472.62614 60,405.00467 60,284.31806 l 0,-186.408969 2.454545,-2.454546 c 3.34023,-3.34023 7.76352,-3.264073 10.472875,0.180314 L 75,98.269717 75,284.95336 c 0,164.22533 0.183091,187.30017 1.521936,191.80855 2.167954,7.3003 9.849812,15.48518 17.068273,18.18596 C 99.035815,496.98533 100.19586,497 255.85937,497 434.6466,497 418.28872,497.8551 428.1611,487.993 437.88038,478.28385 437,501.39098 437,256 437,65.852875 436.8201,39.7572 435.47806,35.238087 433.31011,27.937794 425.62825,19.752905 418.40979,17.052133 412.96411,15.014642 411.80534,15 256,15 100.19466,15 99.035892,15.014642 93.590209,17.052133 89.603301,18.543826 86.731486,20.607537 83.074632,24.608718 76.04777,32.297225 75,36.43014 75,56.458995 75,69.035059 74.677076,73.016026 73.523329,74.66323 69.932363,79.790052 61.609409,77.76535 60.4299,71.478028 60.067015,69.543682 59.974674,60.432302 60.224699,51.230518 60.610983,37.013962 61.01417,33.637426 62.907926,28.759538 67.360863,17.289775 77.083142,7.5337824 88.759538,2.8182804 L 94.5,0.5 H 256 417.5 l 5.74046,2.3182804 c 11.61706,4.6915397 21.24972,14.3241956 25.94126,25.9412576 L 451.5,34.5 V 256 477.5 l -2.31828,5.74046 c -4.69154,11.61706 -14.3242,21.24972 -25.94126,25.94126 L 417.5,511.5 258,511.69187 C 120.9439,511.85674 97.740796,511.6785 93.104631,510.42516 Z M 247.5,487.61115 c -15.23702,-6.65636 -18.81733,-26.4419 -6.84158,-37.8081 C 244.6088,446.05374 250.03828,444 256,444 c 12.85577,0 22.40963,9.59239 22.40963,22.5 0,9.47383 -5.34027,17.46922 -14.12751,21.15154 -4.05428,1.69896 -12.84905,1.67779 -16.78212,-0.0404 z m 14.04545,-16.0657 C 266.44726,466.64365 263.06854,459 256,459 c -4.38533,0 -8,3.47023 -8,7.68031 0,3.44182 4.23829,7.31969 8,7.31969 1.94837,0 3.99822,-0.90731 5.54545,-2.45455 z M 92.174314,436.68555 C 90.038543,434.41212 90,433.82223 90,403.40806 c 0,-33.56413 0.139235,-34.47324 5.4853,-35.81501 2.912397,-0.73097 7.95669,1.51042 8.89352,3.95175 C 104.72047,372.43513 105,384.82677 105,399.08179 V 425 H 256 407 V 312.58179 c 0,-61.83002 0.27953,-113.14666 0.62118,-114.03699 0.93683,-2.44133 5.98112,-4.68272 8.89352,-3.95175 5.80051,1.45583 5.4853,-5.58095 5.4853,122.45514 l 0,117.60318 -2.31445,2.17432 L 417.3711,439 H 255.85986 94.348628 Z M 92.07258,349.36514 90,346.73028 90,202.81969 90,58.909091 92.454545,56.454545 94.909091,54 256,54 417.09091,54 419.54545,56.454545 422,58.909091 v 57.410599 c 0,56.56655 -0.0305,57.44933 -2.07258,60.04545 -2.86628,3.64388 -7.98856,3.64388 -10.85484,0 -2.03684,-2.58942 -2.07258,-3.53779 -2.07258,-55 V 69 H 256 105 v 138.86514 138.86514 l -2.07258,2.63486 C 101.42421,351.27617 99.933218,352 97.5,352 c -2.433218,0 -3.924207,-0.72383 -5.42742,-2.63486 z M 221.83186,40.494438 c -4.73503,-2.613237 -4.66172,-9.909577 0.12532,-12.47152 C 226.86205,25.397909 233,29.011457 233,34.524075 c 0,5.256357 -6.33018,8.640403 -11.16814,5.970363 z m 27.62269,-0.948983 c -3.14962,-3.14962 -3.20824,-7.488774 -0.1401,-10.371141 C 251.52529,27.09734 252.49075,27 270.88019,27 c 11.2094,0 20.04972,0.427306 21.16263,1.022918 4.90923,2.627339 4.8645,9.939409 -0.0764,12.494464 C 289.73438,41.671596 284.98045,42 270.50421,42 c -18.40963,0 -18.6196,-0.02448 -21.04966,-2.454545 z"
       id="path1" />
  </g>
</svg>
