<?xml version="1.0" encoding="UTF-8" standalone="no"?>
<!-- Created with Inkscape (http://www.inkscape.org/) -->

<svg
   version="1.1"
   id="svg1"
   width="512"
   height="512"
   viewBox="0 0 512 512"
   sodipodi:docname="icon_computer.svg"
   inkscape:version="1.3.2 (091e20ef0f, 2023-11-25, custom)"
   xmlns:inkscape="http://www.inkscape.org/namespaces/inkscape"
   xmlns:sodipodi="http://sodipodi.sourceforge.net/DTD/sodipodi-0.dtd"
   xmlns="http://www.w3.org/2000/svg"
   xmlns:svg="http://www.w3.org/2000/svg">
  <defs
     id="defs1" />
  <sodipodi:namedview
     id="namedview1"
     pagecolor="#505050"
     bordercolor="#ffffff"
     borderopacity="1"
     inkscape:showpageshadow="0"
     inkscape:pageopacity="0"
     inkscape:pagecheckerboard="1"
     inkscape:deskcolor="#d1d1d1"
     inkscape:zoom="0.4609375"
     inkscape:cx="254.91525"
     inkscape:cy="254.91525"
     inkscape:window-width="1804"
     inkscape:window-height="1173"
     inkscape:window-x="0"
     inkscape:window-y="0"
     inkscape:window-maximized="0"
     inkscape:current-layer="g1" />
  <g
     inkscape:groupmode="layer"
     inkscape:label="Image"
     id="g1">
    <path
       style="fill:#e1e1e1;fill-opacity:1"
       d="m 8.4237112,448.98065 c -2.536992,-1.25581 -4.8971303,-3.47826 -6.25,-5.88536 L 0,439.22769 0,271 0,102.77231 2.1178856,99.00404 C 3.2827227,96.931492 5.9314922,94.282723 8.0040401,93.117886 11.715081,91.032164 12.60628,91 66.686078,91 h 54.913772 l 1.19824,-5.801333 c 1.4965,-7.24534 5.82795,-14.19083 11.34001,-18.183747 8.85969,-6.417923 -2.48292,-6.063593 184.90687,-5.776274 L 489.5,61.5 l 5.6816,2.790085 c 6.43691,3.160998 11.13432,8.00593 14.21274,14.65911 L 511.5,83.5 V 211 338.5 l -2.79009,5.6816 c -3.16099,6.43691 -8.00593,11.13432 -14.6591,14.21274 -4.43149,2.05045 -6.02568,2.11305 -60.80081,2.38747 L 377,361.06362 V 391.03181 421 h 16.61385 c 15.22778,0 16.93805,0.18221 20.49991,2.18409 C 418.20755,425.48493 422,431.64803 422,436 c 0,4.76759 -3.88157,10.76425 -8.37583,12.93989 C 409.42133,450.97445 408.22309,451 317,451 c -90.32611,0 -92.45991,-0.0442 -96.50018,-2.00009 C 215.74595,446.6986 212,440.96942 212,436 c 0,-4.60182 3.61056,-10.41284 8.00404,-12.88211 C 223.42197,421.1969 225.3169,421 240.38615,421 H 257 V 391 361 H 218.5 180 v 38.68428 c 0,37.01669 -0.0888,38.86772 -2.06011,42.93989 -1.4957,3.08971 -3.22601,4.82002 -6.31572,6.31572 -4.18473,2.02579 -5.5455,2.0601 -81.689894,2.05932 -75.647284,-7.7e-4 -77.528347,-0.0473 -81.5105648,-2.01856 z M 150,391.09974 v -29.90026 l -4.93807,-1.18462 c -6.57214,-1.57663 -13.29074,-5.96758 -17.03067,-11.13041 C 122.1478,340.76257 122,339.26615 122,287.8185 L 122,241 H 76 30 v 90 90 h 60 60 z m -66.576289,8.88091 C 78.728845,397.65669 75,391.91066 75,387 c 0,-7.28413 7.715869,-15 15,-15 7.181729,0 15,7.81827 15,15 0,4.76759 -3.88157,10.76425 -8.375833,12.93989 -5.331992,2.58117 -8.051363,2.58957 -13.200456,0.0408 z M 347,391 v -30 h -30 -30 v 30 30 h 30 30 z M 482,211 V 91 H 317 152 V 211 331 H 317 482 Z M 122,196 V 181 H 76 30 v 15 15 h 46 46 z m 0,-60 V 121 H 76 30 v 15 15 h 46 46 z"
       id="path1" />
  </g>
</svg>
