<?xml version="1.0" encoding="UTF-8" standalone="no"?>
<svg
   width="214mm"
   height="214mm"
   viewBox="0 0 214.00001 214"
   version="1.1"
   id="svg1100"
   inkscape:version="1.3.2 (091e20ef0f, 2023-11-25, custom)"
   sodipodi:docname="dopy_logo.svg"
   inkscape:export-filename="/home/lecomte/Images/dopy/logo_3bis.png"
   inkscape:export-xdpi="96"
   inkscape:export-ydpi="96"
   xmlns:inkscape="http://www.inkscape.org/namespaces/inkscape"
   xmlns:sodipodi="http://sodipodi.sourceforge.net/DTD/sodipodi-0.dtd"
   xmlns="http://www.w3.org/2000/svg"
   xmlns:svg="http://www.w3.org/2000/svg"
   xmlns:rdf="http://www.w3.org/1999/02/22-rdf-syntax-ns#"
   xmlns:cc="http://creativecommons.org/ns#"
   xmlns:dc="http://purl.org/dc/elements/1.1/">
  <defs
     id="defs1094">
    <marker
       style="overflow:visible"
       id="marker2107"
       refX="0"
       refY="0"
       orient="auto"
       inkscape:stockid="Arrow1Lstart"
       inkscape:isstock="true">
      <path
         transform="matrix(0.8,0,0,0.8,10,0)"
         style="fill-rule:evenodd;stroke:#000000;stroke-width:1pt"
         d="M 0,0 5,-5 -12.5,0 5,5 Z"
         id="path2105" />
    </marker>
    <marker
       style="overflow:visible"
       id="Arrow1Mstart"
       refX="0"
       refY="0"
       orient="auto"
       inkscape:stockid="Arrow1Mstart"
       inkscape:isstock="true">
      <path
         transform="matrix(0.4,0,0,0.4,4,0)"
         style="fill-rule:evenodd;stroke:#000000;stroke-width:1pt"
         d="M 0,0 5,-5 -12.5,0 5,5 Z"
         id="path1765" />
    </marker>
    <marker
       style="overflow:visible"
       id="marker2065"
       refX="0"
       refY="0"
       orient="auto"
       inkscape:stockid="Arrow1Lend"
       inkscape:isstock="true">
      <path
         transform="matrix(-0.8,0,0,-0.8,-10,0)"
         style="fill-rule:evenodd;stroke:#000000;stroke-width:1pt"
         d="M 0,0 5,-5 -12.5,0 5,5 Z"
         id="path2063" />
    </marker>
    <marker
       style="overflow:visible"
       id="marker2061"
       refX="0"
       refY="0"
       orient="auto"
       inkscape:stockid="Arrow1Lstart"
       inkscape:isstock="true">
      <path
         transform="matrix(0.8,0,0,0.8,10,0)"
         style="fill-rule:evenodd;stroke:#000000;stroke-width:1pt"
         d="M 0,0 5,-5 -12.5,0 5,5 Z"
         id="path2059" />
    </marker>
    <marker
       style="overflow:visible"
       id="marker2039"
       refX="0"
       refY="0"
       orient="auto"
       inkscape:stockid="Arrow1Lstart"
       inkscape:isstock="true">
      <path
         transform="matrix(0.8,0,0,0.8,10,0)"
         style="fill-rule:evenodd;stroke:#000000;stroke-width:1pt"
         d="M 0,0 5,-5 -12.5,0 5,5 Z"
         id="path2037" />
    </marker>
    <marker
       style="overflow:visible"
       id="Arrow1Lend"
       refX="0"
       refY="0"
       orient="auto"
       inkscape:stockid="Arrow1Lend"
       inkscape:isstock="true">
      <path
         transform="matrix(-0.8,0,0,-0.8,-10,0)"
         style="fill-rule:evenodd;stroke:#000000;stroke-width:1pt"
         d="M 0,0 5,-5 -12.5,0 5,5 Z"
         id="path1762" />
    </marker>
    <marker
       style="overflow:visible"
       id="Arrow1Lstart"
       refX="0"
       refY="0"
       orient="auto"
       inkscape:stockid="Arrow1Lstart"
       inkscape:isstock="true">
      <path
         transform="matrix(0.8,0,0,0.8,10,0)"
         style="fill-rule:evenodd;stroke:#000000;stroke-width:1pt"
         d="M 0,0 5,-5 -12.5,0 5,5 Z"
         id="path1759" />
    </marker>
  </defs>
  <sodipodi:namedview
     id="base"
     pagecolor="#121212"
     bordercolor="#666666"
     borderopacity="1.0"
     inkscape:pageopacity="1"
     inkscape:pageshadow="2"
     inkscape:zoom="0.68419322"
     inkscape:cx="356.62441"
     inkscape:cy="385.12513"
     inkscape:document-units="mm"
     inkscape:current-layer="layer2"
     inkscape:document-rotation="0"
     showgrid="false"
     inkscape:pagecheckerboard="true"
     inkscape:window-width="1804"
     inkscape:window-height="1173"
     inkscape:window-x="0"
     inkscape:window-y="0"
     inkscape:window-maximized="0"
     gridtolerance="10"
     inkscape:snap-perpendicular="true"
     fit-margin-top="0"
     fit-margin-left="0"
     fit-margin-right="0"
     fit-margin-bottom="0"
     showguides="true"
     inkscape:showpageshadow="0"
     inkscape:deskcolor="#d1d1d1">
    <inkscape:grid
       type="xygrid"
       id="grid1086"
       originx="32.265182"
       originy="30.828733"
       spacingy="1"
       spacingx="1"
       units="mm"
       visible="false" />
  </sodipodi:namedview>
  <metadata
     id="metadata1097">
    <rdf:RDF>
      <cc:Work
         rdf:about="">
        <dc:format>image/svg+xml</dc:format>
        <dc:type
           rdf:resource="http://purl.org/dc/dcmitype/StillImage" />
      </cc:Work>
    </rdf:RDF>
  </metadata>
  <g
     inkscape:groupmode="layer"
     id="layer2"
     inkscape:label="fond"
     style="display:inline"
     transform="translate(1.5347035,-40.971077)">
    <rect
       style="display:inline;opacity:0.999;fill:#121212;fill-opacity:1;stroke:none;stroke-width:3.53203;stroke-miterlimit:4;stroke-dasharray:none;paint-order:stroke fill markers;image-rendering:auto"
       id="rect1193"
       width="214"
       height="214.00002"
       x="-1.5347035"
       y="40.971077"
       ry="16.552139" />
  </g>
  <g
     inkscape:groupmode="layer"
     id="layer3"
     inkscape:label="hearRight"
     transform="translate(32.265182,30.828735)">
    <path
       style="fill:#d49703;fill-opacity:1;stroke:#d49703;stroke-width:3.5;stroke-linecap:butt;stroke-linejoin:miter;stroke-miterlimit:4;stroke-dasharray:none;stroke-opacity:1"
       d="M 88.527555,64.29375 V 22.824182"
       id="path1088" />
  </g>
  <g
     inkscape:groupmode="layer"
     id="layer4"
     inkscape:label="hearLeft"
     transform="translate(32.265182,30.828735)">
    <path
       style="fill:#d49703;fill-opacity:1;stroke:#d49703;stroke-width:3.5;stroke-linecap:butt;stroke-linejoin:miter;stroke-miterlimit:4;stroke-dasharray:none;stroke-opacity:1"
       d="m 61.078905,64.822917 v -15.875"
       id="path3297"
       sodipodi:nodetypes="cc" />
    <circle
       style="fill:#e6b905;fill-opacity:1;stroke:none;stroke-width:3.33801;stroke-miterlimit:4;stroke-dasharray:none;stroke-opacity:1"
       id="path1042-6"
       cx="61.078907"
       cy="37.786137"
       r="12.330666" />
  </g>
  <g
     inkscape:label="Calque 1"
     inkscape:groupmode="layer"
     id="layer1"
     transform="translate(1.5347035,-40.971077)">
    <path
       inkscape:connector-curvature="0"
       style="display:inline;fill:none;stroke:#ffffff;stroke-width:0.185466px;stroke-linecap:butt;stroke-linejoin:miter;stroke-miterlimit:10;stroke-dasharray:none;stroke-opacity:1"
       d="m 95.378879,191.1918 v 11.2671 h 8.438741 v -11.45257 h 9.0415 v 11.45257"
       id="path836-1" />
    <path
       inkscape:connector-curvature="0"
       style="display:inline;fill:#d49703;fill-opacity:1;fill-rule:nonzero;stroke:none;stroke-width:0.1391"
       d="m 48.303451,190.52733 c -6.444968,0 -6.444968,0 -6.444968,0 -6.120401,0 -11.128004,-5.0076 -11.128004,-11.12801 0,-9.13424 0,-9.13424 0,-9.13424 0,-6.16676 5.007603,-11.128 11.128004,-11.128 6.444968,0 6.444968,0 6.444968,0 z"
       id="path840-5" />
    <path
       inkscape:connector-curvature="0"
       style="display:inline;fill:#d49703;fill-opacity:1;fill-rule:nonzero;stroke:none;stroke-width:0.1391"
       d="m 169.57931,190.52733 c -6.44498,0 -6.44498,0 -6.44498,0 0,-31.39025 0,-31.39025 0,-31.39025 6.44498,0 6.44498,0 6.44498,0 6.1204,0 11.12801,4.96124 11.12801,11.128 0,9.13424 0,9.13424 0,9.13424 0,6.12041 -5.00761,11.12801 -11.12801,11.12801 z"
       id="path842-9" />
    <path
       inkscape:connector-curvature="0"
       style="display:inline;fill:#e6b905;fill-opacity:1;fill-rule:nonzero;stroke:none;stroke-width:0.1391"
       d="m 152.22444,211.82497 c -93.01157,0 -93.01157,0 -93.01157,0 -6.166771,0 -11.174373,-4.96124 -11.174373,-11.17437 0,-53.50715 0,-53.50715 0,-53.50715 0,-6.1204 4.961235,-11.12801 11.174373,-11.12801 93.01157,0 93.01157,0 93.01157,0 6.16676,0 11.17436,4.96124 11.17436,11.12801 0,53.50715 0,53.50715 0,53.50715 0,6.21313 -5.0076,11.17437 -11.17436,11.17437 z"
       id="path838-1"
       inkscape:export-xdpi="96"
       inkscape:export-ydpi="96"
       inkscape:label="head" />
    <path
       inkscape:connector-curvature="0"
       style="display:inline;fill:#121212;fill-opacity:1;fill-rule:nonzero;stroke:none;stroke-width:0.1391"
       d="m 80.448807,151.71842 c 9.783371,0 17.712073,7.92869 17.712073,17.75843 0,9.78337 -7.928702,17.71208 -17.712073,17.71208 -9.783369,0 -17.712071,-7.92871 -17.712071,-17.71208 0,-9.82974 7.928702,-17.75843 17.712071,-17.75843 z"
       id="path844-8" />
    <path
       inkscape:connector-curvature="0"
       style="display:inline;fill:#121212;fill-opacity:1;fill-rule:nonzero;stroke:none;stroke-width:0.1391"
       d="m 130.61756,151.71842 c 9.78337,0 17.71208,7.92869 17.71208,17.75843 0,9.78337 -7.92871,17.71208 -17.71208,17.71208 -9.82974,0 -17.75844,-7.92871 -17.75844,-17.71208 0,-9.82974 7.9287,-17.75843 17.75844,-17.75843 z"
       id="path846-4" />
    <circle
       style="fill:#e6b905;fill-opacity:1;stroke:none;stroke-width:3.33801;stroke-miterlimit:4;stroke-dasharray:none;stroke-opacity:1"
       id="path1042"
       cx="119.25803"
       cy="84.130478"
       r="12.330666" />
  </g>
  <g
     inkscape:groupmode="layer"
     id="layer5"
     inkscape:label="mouth"
     style="display:inline"
     transform="translate(32.265182,30.828735)">
    <g
       id="g4151"
       transform="translate(0.659461)">
      <path
         inkscape:connector-curvature="0"
         style="display:inline;fill:#121212;fill-opacity:1;fill-rule:nonzero;stroke:#e6b905;stroke-width:0.571;stroke-linecap:butt;stroke-linejoin:miter;stroke-miterlimit:10;stroke-dasharray:none;stroke-opacity:1"
         d="m 90.4875,132.82084 c -32.363946,0 -32.363946,0 -32.363946,0 -3.152934,0 -5.749467,-2.55017 -5.749467,-5.74947 0,0 0,0 0,0 0,-3.1993 2.596533,-5.74947 5.749467,-5.74947 32.363946,0 32.363946,0 32.363946,0 3.1993,0 5.79583,2.55017 5.79583,5.74947 0,0 0,0 0,0 0,3.1993 -2.59653,5.74947 -5.79583,5.74947 z"
         id="path856-0" />
      <path
         style="display:inline;fill:none;stroke:#e6b905;stroke-width:3.5;stroke-linecap:butt;stroke-linejoin:miter;stroke-miterlimit:4;stroke-dasharray:none;stroke-opacity:1"
         d="m 83.12505,121.34509 v 11.45256"
         id="path4102" />
      <path
         style="display:inline;fill:none;stroke:#e6b905;stroke-width:3.5;stroke-linecap:butt;stroke-linejoin:miter;stroke-miterlimit:4;stroke-dasharray:none;stroke-opacity:1"
         d="m 65.662489,121.34509 v 11.45256"
         id="path4100" />
      <path
         style="display:inline;fill:none;stroke:#e6b905;stroke-width:3.5;stroke-linecap:butt;stroke-linejoin:miter;stroke-miterlimit:4;stroke-dasharray:none;stroke-opacity:1"
         d="m 74.39377,121.34509 v 11.45256"
         id="path1472-4" />
    </g>
  </g>
  <g
     inkscape:groupmode="layer"
     id="layer6"
     inkscape:label="mouth2"
     style="display:none"
     transform="translate(32.265182,30.828735)">
    <path
       style="fill:#121212;fill-opacity:1;stroke:#121212;stroke-width:3.5;stroke-linecap:round;stroke-linejoin:miter;stroke-miterlimit:4;stroke-dasharray:none;stroke-opacity:1"
       d="M 68.164546,128.32292 H 81.811793"
       id="path4227"
       sodipodi:nodetypes="cc" />
  </g>
</svg>
