<svg id="Layer_1" enable-background="new 0 0 64 64" viewBox="0 0 64 64" xmlns="http://www.w3.org/2000/svg"><g id="Play_Store"><path d="m7 3v58l33-29z" fill="#57cef3"/><path d="m36 32 8-10 15 10-15 10z" fill="#fff200"/><path d="m36 32-29-29h4l34 20z" fill="#48ff48"/><path d="m36 32-29 29h4l34-20z" fill="#ff6c58"/><path d="m9.1 64c-1.9 0-3.6-1-4.5-2.6l3.4-3.2v.7c0 .3.1.6.3.8l15.7-15.7c7.4 0 14.1-1.2 18.3-3.1l5.8-3.4v4.6l-36.4 21.2c-.7.5-1.6.7-2.6.7z" fill="#f33"/><path d="m9.1 4c-.6 0-1.1.5-1.1 1.1v30.9c0 4.4 7.2 8 16 8l-18.5 18.5c-.9-.9-1.5-2.2-1.5-3.6v-53.8c0-2.8 2.3-5.1 5.1-5.1z" fill="#0779e4"/><path d="m8.3 4.3c.2-.2.5-.3.8-.3.2 0 .4.1.6.2l45.5 26.6c.5.2.8.7.8 1.2s-.3 1-.7 1.3l-11.4 6.6 2.9 2.9 10.4-6.1c1.7-1 2.7-2.8 2.7-4.7s-1-3.8-2.7-4.7l-45.5-26.6c-.7-.5-1.6-.7-2.6-.7-1.4 0-2.7.6-3.6 1.5z" fill="#314a52"/></g></svg>